<?xml version="1.0" encoding="utf-8"?>
<!-- Generator: Adobe Illustrator 22.0.1, SVG Export Plug-In . SVG Version: 6.00 Build 0)  -->
<svg version="1.1" xmlns="http://www.w3.org/2000/svg" xmlns:xlink="http://www.w3.org/1999/xlink" x="0px" y="0px"
	 viewBox="0 0 203 163" style="enable-background:new 0 0 203 163;" xml:space="preserve">
<g id="face">
	<path d="M29,53c2.8-3.8,6.5-7,10.8-9.3c2.1-1.2,4.4-2.1,6.9-2.7c1.2-0.3,2.5-0.5,3.7-0.6c1.3-0.1,2.5-0.1,3.8,0.1
		c1.3,0.1,2.5,0.4,3.8,0.8c0.6,0.2,1.2,0.4,1.8,0.6l1.6,0.7c2.2,0.9,4.3,1.9,6.4,3.1c2.1,1.1,4.1,2.4,6,3.8c1.9,1.4,3.8,2.9,5.3,4.8
		c-2-1.2-4.1-2.2-6.2-3.1c-2.1-1-4.2-1.8-6.4-2.6c-2.1-0.8-4.3-1.6-6.4-2.4l-1.6-0.6c-0.5-0.2-1-0.3-1.5-0.5c-1-0.3-2-0.5-3.1-0.6
		c-4.2-0.5-8.5,0.4-12.7,2C37,48.2,32.9,50.4,29,53z"/>
	<path d="M129.1,51.6c2-2.9,4.8-5.2,8-6.8c3.2-1.6,6.8-2.5,10.5-2.5c0.9,0,1.8,0.1,2.7,0.2c0.9,0.2,1.8,0.3,2.7,0.5
		c1.8,0.4,3.5,1.1,5.1,1.9c3.2,1.7,6,3.9,8.1,6.7c-3.2-1.5-6.2-2.9-9.3-3.8c-0.4-0.1-0.8-0.2-1.2-0.3l-1.2-0.3
		c-0.8-0.1-1.5-0.4-2.3-0.5c-1.5-0.3-3.1-0.4-4.7-0.4c-3.1,0-6.2,0.5-9.3,1.4C135.2,48.6,132.2,49.9,129.1,51.6z"/>
	<ellipse cx="52.1" cy="51" rx="9.3" ry="9.1"/>
	<ellipse cx="148.4" cy="51.9" rx="9.3" ry="9.1"/>
	<path d="M86.4,97.3c-0.4,1.3-0.5,2.6-0.2,3.8c0.3,1.2,0.9,2.2,1.8,3c0.2,0.2,0.4,0.4,0.7,0.6c0.2,0.2,0.5,0.4,0.7,0.6
		c0.5,0.3,1,0.7,1.5,1c0.3,0.2,0.5,0.3,0.8,0.5c0.3,0.2,0.5,0.4,0.8,0.5c0.6,0.3,1.1,0.6,1.7,1c-0.7,0-1.3-0.2-2-0.3
		c-0.6-0.1-1.3-0.4-1.9-0.6c-0.3-0.1-0.6-0.3-0.9-0.4l-0.9-0.5c-0.3-0.2-0.6-0.4-0.8-0.6c-0.3-0.2-0.6-0.4-0.8-0.7
		c-1-1-1.8-2.4-1.9-4C84.9,99.8,85.4,98.3,86.4,97.3z"/>
	<path d="M117.1,106.5c1.1-0.9,2.1-1.8,3.1-2.7c1-0.9,1.9-1.9,2.6-2.9c0.7-1.1,1.2-2.2,1.2-3.4c0-1.2-0.5-2.5-1.2-3.8
		c1.1,0.8,2.1,2.1,2.4,3.7c0.3,1.6-0.3,3.3-1.2,4.5c-0.9,1.2-2,2.2-3.1,3C119.7,105.6,118.4,106.2,117.1,106.5z"/>
	<path d="M91.9,100.5c0.7-0.8,1.5-1.4,2.4-1.9c0.9-0.5,1.8-0.8,2.9-1c1-0.1,2.1-0.1,3.1,0.5c0.5,0.3,0.9,0.6,1.3,1.1
		c0.3,0.5,0.5,1,0.6,1.5c-0.8-0.7-1.5-1.2-2.3-1.3c-0.8-0.2-1.6-0.1-2.5,0c-0.9,0.1-1.7,0.3-2.6,0.5C93.8,100,92.9,100.3,91.9,100.5
		z"/>
	<path d="M104,109.3c1.6-0.5,3-1.2,4.3-2.1c0.3-0.2,0.6-0.5,0.9-0.7c0.3-0.3,0.6-0.5,0.8-0.8c0.5-0.6,1-1.2,1.4-1.9
		c0.2-0.3,0.4-0.7,0.6-1c0.2-0.4,0.3-0.7,0.5-1.1l0.4-1.2c0.2-0.5,0.5-0.9,0.8-1.3c0.7-0.7,1.7-1.1,2.7-0.9c0.5,0.2,0.9,0.5,1.1,0.9
		c0.2,0.4,0.4,0.8,0.5,1.3c-0.4-0.7-1.1-1.4-1.7-1.4c-0.3,0-0.6,0.1-0.9,0.3c-0.3,0.2-0.5,0.4-0.7,0.7c-0.2,0.3-0.3,0.6-0.4,0.9
		l-0.3,1.2c-0.1,0.5-0.3,0.9-0.5,1.3c-0.2,0.4-0.4,0.8-0.6,1.2c-1,1.6-2.3,2.9-3.9,3.6C107.4,109.1,105.7,109.5,104,109.3z"/>
	<path d="M70.5,138.7"/>
	<path d="M67,136.9c3.3,0.9,6.6,1.5,9.8,1.6c3.2,0.1,6.5-0.3,9.2-1.7l1.2-0.5c0.4-0.2,0.8-0.4,1.3-0.5l1.3-0.4
		c0.4-0.1,0.9-0.2,1.3-0.3c1.8-0.4,3.6-0.6,5.4-0.6c1.8,0,3.6,0.1,5.3,0.3c1.8,0.3,3.4,0.6,5.3,1.2l-1.1,0c2.1-0.5,4.2-1,6.4-1.5
		l3.2-0.7l0.4-0.1c0.1,0,0.3-0.1,0.5-0.1c0.3-0.1,0.7-0.1,1-0.1c0.7,0,1.4,0,2,0.2c2.1,0.5,4.3,0.9,6.4,1.4c2.1,0.5,4.2,1,6.4,1.6
		l-0.2,0c2.4,0.1,4.7,0.2,7.1,0.3c-2.3,0.5-4.7,0.9-7,1.2l0,0l-0.2,0c-2.2-0.2-4.4-0.4-6.5-0.6c-2.2-0.2-4.3-0.5-6.5-0.7
		c-0.5-0.1-0.8,0-1.2,0c-0.2,0-0.4,0.1-0.6,0.1l-0.3,0.1l-0.4,0.1l-3.1,0.9c-2.1,0.6-4.2,1.2-6.3,1.7l-0.5,0.1l-0.6-0.2
		c-1.4-0.4-3-0.8-4.6-1c-1.6-0.2-3.2-0.4-4.7-0.4c-1.6,0-3.1,0.1-4.7,0.3c-0.4,0.1-0.8,0.1-1.1,0.2l-1.1,0.3
		c-0.4,0.1-0.7,0.2-1.1,0.4l-1.2,0.4c-1.8,0.7-3.6,0.9-5.4,1.1c-1.8,0.1-3.6-0.1-5.3-0.4C73.2,139.9,69.9,138.7,67,136.9z"/>
	<path d="M82.2,144.9c4,0.7,8,1.5,11.9,2.1c3.9,0.6,7.8,1.1,11.7,1.3c3.9,0.2,7.7,0.1,11.4-0.7c3.7-0.8,7.2-2.3,10.5-4.9
		c-1,1.8-2.4,3.4-4,4.8c-1.6,1.4-3.6,2.4-5.6,3.1c-4,1.5-8.3,1.9-12.5,1.7c-4.2-0.2-8.3-1-12.2-2.3
		C89.4,148.8,85.6,147.2,82.2,144.9z"/>
	<path d="M80,134.3c1.6-1.8,3.4-3.4,5.4-4.8c1.9-1.4,4-2.7,6.3-3.6c2.3-1,4.7-1.6,7.3-1.5c1.3,0,2.6,0.3,3.7,0.8
		c1.1,0.4,2.2,0.7,3.3,0.9c1.1,0.2,2.2,0.3,3.2,0.1c0.5-0.1,1-0.3,1.3-0.5c0.1-0.1,0.2-0.1,0.3-0.2l0.3-0.2c0.2-0.2,0.5-0.4,0.8-0.6
		c1.1-0.8,2.3-1.3,3.6-1.5c0.7-0.1,1.3-0.1,2-0.1c0.7,0.1,1.3,0.2,1.9,0.4c2.4,0.8,4.5,2.1,6.4,3.6c1.9,1.6,3.5,3.3,5,5.2
		c-1.8-1.6-3.6-3.1-5.6-4.4c-1.9-1.3-4-2.4-6.2-2.9c-1.1-0.3-2.1-0.3-3.2-0.1c-1,0.2-2,0.7-2.8,1.3c-0.2,0.2-0.4,0.3-0.6,0.5
		l-0.4,0.3c-0.1,0.1-0.3,0.2-0.5,0.3c-0.6,0.4-1.3,0.6-2,0.8c-1.3,0.3-2.7,0.2-3.9,0c-1.2-0.2-2.4-0.6-3.6-1
		c-1.1-0.4-2.1-0.6-3.2-0.7c-2.2-0.2-4.5,0.3-6.6,1.1C87.8,128.8,83.7,131.4,80,134.3z"/>
	<path d="M122.3,26.5c1-2.1,2.4-3.9,3.9-5.6c1.5-1.7,3.2-3.2,4.9-4.6c3.6-2.8,7.6-5.1,12-6.5c0.5-0.2,1.1-0.3,1.7-0.5
		c0.6-0.2,1.1-0.3,1.7-0.4c1.1-0.2,2.3-0.5,3.5-0.6c2.4-0.2,4.8-0.3,7.1,0.1c2.4,0.4,4.7,1.1,6.8,2.1c2.1,1.1,4,2.5,5.5,4.2
		c-2.3-0.2-4.4-0.4-6.5-0.4c-2.1,0-4,0.1-6,0.4c-3.9,0.5-7.6,1.5-11.4,2.8c-3.8,1.2-7.5,2.8-11.4,4.3
		C130.5,23.3,126.7,25,122.3,26.5z"/>
	<path d="M87,23.9c-5.8-1.6-11.3-3.3-16.9-4.7c-5.5-1.4-11-2.5-16.4-3.2c-1.4-0.1-2.7-0.3-4.1-0.4c-1.4-0.1-2.7-0.1-4.1-0.2
		c-2.7,0-5.4,0.2-8.1,0.5c-2.7,0.3-5.4,1-8.1,1.7c-2.7,0.8-5.4,1.9-8.2,3c0.9-1.2,1.8-2.5,2.9-3.5c0.5-0.5,1.1-1.1,1.7-1.6l1.8-1.4
		c2.5-1.8,5.4-3.3,8.3-4.3c3-1,6.1-1.7,9.2-2c1.6-0.1,3.1-0.2,4.7-0.2c1.6,0,3.1,0.2,4.7,0.3c6.2,0.7,12.1,2.6,17.6,5.2
		c2.7,1.3,5.4,2.8,7.8,4.6C82.6,19.7,85,21.6,87,23.9z"/>
</g>
<g id="glasses">
	<path d="M146.2,26.2c-17.7,7.1-34.9,20.3-59.2,6.6c-23.3-13.1-42.1-9.6-43.6-9.3c-0.1,0-0.1,0-0.2,0L7.4,29.2c-2,0.3-3.4,2-3.4,4
		v8.5c0,1.9,1.3,3.5,3.1,3.9c1.6,0.4,3.2,1.2,4.4,2.6c2.6,2.9,2.3,7,2.2,8.4c-0.4,9.9,9,25.2,20.3,32.2c16.3,10.1,35.8,2.4,38.4,1.3
		c2-0.8,23.3-10,24.7-24.7c0.4-4.7-1.1-9.4,2.2-13.2c2.1-2.4,5.9-4.1,8.8-3.1c3.2,1.1,4.2,5,5.7,9.3c0,0,2.7,7.6,9.7,19.4
		c6.3,10.6,21.5,16.5,33.1,15.9c18.4-0.9,36-18.7,39.2-43.5c0.1-0.4,0.2-0.9,0.4-1.3l1.5-3c0.3-0.5,0.4-1.1,0.4-1.7l0.3-8.9
		c0.1-1.8-1.1-3.4-2.8-4C187.2,28.4,160.8,20.4,146.2,26.2z M92.3,57.6c-0.3,2-4.2,23.7-23.8,30.9C50.9,95,33,85.3,24.8,73.9
		c-2-2.8-5.5-8.5-6.2-16.3c-0.1-1.1-1.3-17.7,9.7-25.6c2.3-1.6,5.8-3.4,15.5-4c9.1-0.5,40-2.2,47.7,14.6
		C93.9,47.9,93.1,52.9,92.3,57.6z M189.9,62.9c-3.1,16.4-19.1,23.2-20.8,23.8c-1.7,0.7-13.3,5.2-26.1,0c-14.9-6-27.2-23.6-22.5-37.1
		c4.2-12.3,20.9-16.6,23.4-17.2c3.6-0.9,9.7-1.2,22.1-1.8c7.4-0.3,11.7,1.9,12.4,2.1C188.3,35.5,192.5,49,189.9,62.9z"/>
</g>
</svg>
