<?xml version="1.0" encoding="utf-8"?>
<!-- Generator: Adobe Illustrator 22.0.1, SVG Export Plug-In . SVG Version: 6.00 Build 0)  -->
<svg version="1.1" id="ethan" xmlns="http://www.w3.org/2000/svg" xmlns:xlink="http://www.w3.org/1999/xlink" x="0px" y="0px"
	 viewBox="0 0 203 163" style="enable-background:new 0 0 203 163;" xml:space="preserve">
<style type="text/css">
	.st0{fill:#FFFFFF;stroke:#FFFFFF;stroke-miterlimit:10;}
	.st1{fill:#FFFFFF;}
</style>
<path class="st0" d="M108,86"/>
<g>
	<path class="st1" d="M56.4,143.3c4.7-1.4,9.5-2.5,14.4-3.5c4.8-0.9,9.8-1.6,14.7-1.9c2.5-0.2,5-0.1,7.5,0c1.3,0.1,2.5,0.3,3.8,0.4
		l1.9,0.5l0.9,0.2l0.9,0.2c2.3,0.7,4.7,1.2,7,1.3c1.1,0,2.3,0,3.3-0.4c0.5-0.1,0.9-0.4,1.3-0.6c0.2-0.1,0.3-0.3,0.4-0.5
		c0.1-0.1,0.1-0.2,0.2-0.2c0-0.1,0.1-0.2,0.1-0.1l1.2-0.9l23.4,1.8c3.9,0.3,7.8,0.6,11.7,0.6c0.5,0,1,0,1.4-0.1c0.1,0,0.1,0,0.2-0.1
		l0.3-0.2l0.6-0.3c0.8-0.5,1.6-1,2.4-1.6c1.6-1.1,3.2-2.2,4.8-3.4c-1.5,1.3-2.9,2.6-4.5,3.8c-0.8,0.6-1.5,1.2-2.4,1.8l-0.6,0.4
		l-0.3,0.2c-0.1,0.1-0.3,0.1-0.5,0.2c-0.5,0.1-1,0.2-1.5,0.2c-2,0.2-3.9,0.1-5.9,0.1s-3.9,0-5.9-0.1c-3.9-0.1-7.8-0.3-11.7-0.5
		c-3.9-0.2-7.8-0.5-11.7-0.7l1.2-0.9c-0.6,2-2.1,2.7-3.4,3.1c-1.4,0.4-2.7,0.5-4,0.5c-2.6-0.1-5.1-0.7-7.5-1.5
		c-4.5-1.5-9.4-1.7-14.2-1.6c-4.9,0.1-9.7,0.6-14.6,1.2c-2.4,0.3-4.9,0.7-7.3,1C61.3,142.4,58.9,142.8,56.4,143.3z"/>
</g>
<g>
	<path class="st1" d="M81.2,93c0,2.2,0.1,4.4,0.3,6.5c0.2,2.2,0.5,4.3,1.2,6.3c0.6,2,1.9,3.8,4,3.9c1,0.2,2.1,0.3,3.2,0.2
		c0.5,0,1-0.2,1.5-0.4c0.4-0.3,0.8-0.7,0.8-1.3c0.1,0.6-0.2,1.1-0.7,1.5s-1,0.6-1.6,0.7c-1.1,0.2-2.3,0.2-3.4,0.1
		c-0.5-0.1-1.2-0.1-1.7-0.4c-0.6-0.2-1.1-0.6-1.5-1c-0.8-0.9-1.4-2-1.7-3c-0.7-2.2-0.9-4.4-1-6.6C80.6,97.4,80.8,95.2,81.2,93z"/>
</g>
<g>
	<path class="st1" d="M88.6,106.3c0.2-0.8,0.7-1.6,1.6-1.9c0.9-0.4,1.9,0,2.7,0.4c0.8,0.4,1.5,1.1,2,1.5c0.6,0.4,1.3,0.9,1.9,1.2
		c1.4,0.7,2.8,1.4,4.3,1.9c0.7,0.3,1.5,0.6,2.2,0.8l1.1,0.4l0.6,0.2c0.2,0,0.3,0.1,0.5,0.1c1.3,0.3,2.7,0.1,3.9-0.6
		c0.3-0.1,0.6-0.4,1-0.6l1-0.7c0.7-0.4,1.4-0.9,2-1.3l2.1-1.3c0.7-0.4,1.5-0.9,2.3-1.1s1.7-0.3,2.6-0.2c0.8,0.1,1.7,0.4,2.2,1.2
		c-0.6-0.6-1.5-0.6-2.2-0.5c-0.8,0.1-1.5,0.3-2.2,0.6c-0.7,0.3-1.2,0.8-1.9,1.3l-1.9,1.5c-0.6,0.5-1.3,1-1.9,1.5l-1,0.7
		c-0.3,0.2-0.6,0.5-1,0.8c-1.6,1-3.6,1.4-5.5,0.9c-0.2-0.1-0.5-0.1-0.7-0.2l-0.6-0.2l-1.2-0.4c-0.8-0.3-1.5-0.6-2.3-0.9
		c-1.5-0.7-3-1.4-4.4-2.4c-0.7-0.5-1.4-1-2-1.6c-0.6-0.7-1.1-1.2-1.7-1.7s-1.2-0.8-1.9-0.7C89.7,105,89,105.6,88.6,106.3z"/>
</g>
<g>
	<path class="st1" d="M122.9,110.1c1.6,0.1,3.3-0.2,4.5-1c0.3-0.2,0.6-0.5,0.9-0.7c0.2-0.3,0.5-0.6,0.7-0.9s0.4-0.7,0.5-1l0.4-1.1
		c0.4-1.5,0.5-3.1,0.6-4.7c0-0.8,0-1.6,0-2.4s-0.1-1.6-0.1-2.5c0.2,0.8,0.4,1.6,0.6,2.4c0.2,0.8,0.3,1.6,0.4,2.5
		c0.1,0.8,0,1.7,0.1,2.5c0,0.4-0.1,0.8-0.2,1.3c-0.1,0.4-0.1,0.8-0.3,1.3c-0.4,1.6-1.5,3.3-3.1,4.1
		C126.2,110.7,124.4,110.7,122.9,110.1z"/>
</g>
<g>
	<path class="st1" d="M88.6,151.3c3.3,0.7,6.4,1.2,9.5,1.6c3.1,0.4,6.2,0.6,9.2,0.6h1.1l1.1-0.1c0.8,0,1.5,0,2.3-0.1
		c1.5-0.2,3.1-0.2,4.6-0.5c0.8-0.1,1.6-0.1,2.3-0.3c0.8-0.2,1.6-0.3,2.3-0.4c0.8-0.1,1.6-0.3,2.4-0.5s1.6-0.3,2.5-0.4
		c-2.5,2.2-5.5,4-8.7,5.1c-1.6,0.6-3.3,0.9-4.9,1.3c-0.8,0.2-1.7,0.2-2.5,0.3l-1.3,0.1h-1.3c-3.4,0-6.8-0.6-10-1.7
		C94.1,155.3,91,153.7,88.6,151.3z"/>
</g>
<g>
	<path class="st1" d="M164,111.7c2.1,1.3,3.9,3,5.4,4.9s2.8,4.1,3.7,6.4s1.5,4.7,1.6,7.2c0.2,1.2,0.1,2.4,0,3.7
		c0,0.6-0.1,1.2-0.2,1.8c-0.1,0.6-0.2,1.2-0.3,1.8c-0.1-1.2,0-2.4-0.1-3.6c-0.1-1.2-0.1-2.4-0.4-3.6c-0.3-2.4-1-4.6-1.8-6.8
		c-0.8-2.2-2-4.3-3.3-6.3C167.3,115.2,165.8,113.4,164,111.7z"/>
</g>
<g>
	<path class="st1" d="M18.9,43.1c4.5-3.2,9.3-5.7,14.3-7.9c2.5-1.1,5.1-2,7.8-2.8c2.6-0.8,5.4-1.3,8.3-1.7l2.2-0.1
		c0.7,0,1.5,0,2.2,0.1c0.8,0,1.4,0.1,2.1,0.2c0.7,0.1,1.4,0.2,2.1,0.3c2.7,0.5,5.4,1.2,8,2.1c5.2,1.7,10.2,3.9,14.9,6.8
		C75.4,39,70.2,37.8,65,36.8c-2.6-0.5-5.2-1-7.8-1.3c-0.6-0.1-1.3-0.2-1.9-0.2c-0.6-0.1-1.3-0.2-1.9-0.1c-0.6,0-1.2-0.1-1.8,0
		l-1.9,0.1c-0.6,0-1.3,0.2-1.9,0.2l-0.9,0.1l-1,0.2L44,36.2l-1.9,0.4c-1.3,0.3-2.5,0.6-3.8,0.9c-1.3,0.4-2.6,0.7-3.8,1
		C29.3,40,24.2,41.6,18.9,43.1z"/>
</g>
<g>
	<path class="st1" d="M129.1,43.5c3.2-3.5,7-6.5,11.2-8.9c2.1-1.2,4.3-2.2,6.7-2.9c2.4-0.7,5-1.2,7.7-1c2.5,0.2,4.9,0.8,7.2,1.5
		c2.3,0.7,4.5,1.6,6.7,2.6c4.3,2,8.4,4.4,12.2,7.4c-4.6-1.3-9-2.7-13.4-4s-8.8-2.5-13.1-3c-4-0.3-8.3,1-12.5,2.6
		C137.6,39.5,133.4,41.5,129.1,43.5z"/>
</g>
<circle class="st1" cx="53.4" cy="41.8" r="9.7"/>
<circle class="st1" cx="154.5" cy="41.8" r="9.7"/>
<g>
	<path class="st1" d="M127.8,25c3.1-3.2,7-5.5,11-7.3c4.1-1.8,8.5-3,13-3.5c4.5-0.4,9.2-0.1,13.5,1.3c4.4,1.4,8.4,3.8,11.3,7.2
		c-4.2-1.4-8.2-2.5-12.2-2.9c-4-0.5-8-0.4-12,0s-8.1,1.1-12.1,2C136.1,22.8,132.1,23.8,127.8,25z"/>
</g>
<g>
	<path class="st1" d="M24.8,25c0.6-1.1,1.5-2.2,2.4-3.2s1.9-1.9,2.9-2.7c2.1-1.6,4.5-3,7-4c5.1-2,10.7-2.7,16-2.1
		c5.4,0.5,10.6,2.3,15.3,4.7c4.7,2.4,8.9,5.6,12.5,9.4c-4.9-1.9-9.5-3.8-14.2-5.3c-4.7-1.5-9.4-2.7-14.1-3.2s-9.5-0.3-14.1,0.7
		c-2.3,0.5-4.6,1.2-6.9,2.2C29.2,22.4,27,23.5,24.8,25z"/>
</g>
</svg>
