<?xml version="1.0" encoding="utf-8"?>
<!-- Generator: Adobe Illustrator 22.0.1, SVG Export Plug-In . SVG Version: 6.00 Build 0)  -->
<svg version="1.1" id="git" xmlns="http://www.w3.org/2000/svg" xmlns:xlink="http://www.w3.org/1999/xlink" x="0px" y="0px"
	 viewBox="0 0 40 38" style="enable-background:new 0 0 40 38;" xml:space="preserve">
<style type="text/css">
	.st0{fill:#8BD1B0;}
</style>
<path id="path9-5_10_" class="st0" d="M10.1,18.7c0,0,0.5,1.2,0.5,1.2c1.2,2.2,3.6,3.6,7.6,4c-0.6,0.4-1.2,1.2-1.3,2.2
	c-0.7,0.5-2.1,0.6-3.3,0.3c-1.6-0.5-2.2-3.6-4.5-3.1c-0.5,0.1-0.4,0.4,0,0.7c0.7,0.5,1.4,1,1.9,2.3c0.4,0.9,1.2,2.6,3.9,2.6
	c1,0,1.8-0.1,1.8-0.1s0,2.4,0,3.3c0,1.1-1.5,1.4-1.5,1.9c0,0.2,0.5,0.2,0.9,0.2c0.8,0,2.4-0.6,2.4-1.8c0-0.9,0-3.9,0-4.4
	c0-1.1,0.6-1.5,0.6-1.5s0.1,6.1-0.1,6.9c-0.3,1-0.7,0.8-0.7,1.3c0,0.6,1.9,0.2,2.6-1.2c0.5-1.1,0.3-7.1,0.3-7.1l0.5,0c0,0,0,2.8,0,4
	c0,1.3-0.1,2.9,0.7,3.7c0.5,0.5,2.2,1.4,2.2,0.6c0-0.5-0.9-0.9-0.9-2.2v-5.9c0.7,0,0.6,1.9,0.6,1.9l0.1,3.6c0,0-0.2,1.3,1.4,1.9
	c0.6,0.2,1.8,0.2,1.8-0.1c0.1-0.3-1.4-0.8-1.5-1.8c0-0.6,0-1,0-3.7c0-2.7-0.4-3.7-1.6-4.5c3.9-0.4,6.3-1.4,7.5-4
	c0.1,0,0.5-1.2,0.4-1.2c0.3-1,0.4-2.1,0.4-3.5c0-3.7-1.8-5-2.1-5.6c0.5-2.8-0.1-4.1-0.4-4.5c-1-0.4-3.5,0.9-4.9,1.8
	c-2.2-0.6-6.9-0.6-8.7,0.2c-3.3-2.3-5-2-5-2s-1.1,2-0.3,4.9c-1.1,1.4-1.9,2.3-1.9,4.9C9.5,16.2,9.7,17.5,10.1,18.7L10.1,18.7z"/>
</svg>
