<?xml version="1.0" encoding="utf-8"?>
<!-- Generator: Adobe Illustrator 22.0.1, SVG Export Plug-In . SVG Version: 6.00 Build 0)  -->
<svg version="1.1" id="git" xmlns="http://www.w3.org/2000/svg" xmlns:xlink="http://www.w3.org/1999/xlink" x="0px" y="0px"
	 viewBox="0 0 40 38" style="enable-background:new 0 0 40 38;" xml:space="preserve">
<style type="text/css">
	.st0{fill:#269C47;}
</style>
<g>
	<path class="st0" d="M28.7,6.9h-16c-2.8,0-5,2.3-5,5v5.3v10.7c0,2.8,2.3,5,5,5h16c2.8,0,5-2.3,5-5V17.2v-5.3
		C33.7,9.1,31.4,6.9,28.7,6.9z M30.1,9.9l0.6,0v0.6v3.8l-4.4,0l0-4.4L30.1,9.9z M17,17.2c0.8-1.2,2.2-1.9,3.7-1.9s2.9,0.8,3.7,1.9
		c0.5,0.8,0.9,1.7,0.9,2.7c0,2.5-2.1,4.6-4.6,4.6c-2.5,0-4.6-2.1-4.6-4.6C16.1,18.9,16.4,18,17,17.2z M31.2,27.9
		c0,1.4-1.1,2.5-2.5,2.5h-16c-1.4,0-2.5-1.1-2.5-2.5V17.2h3.9c-0.3,0.8-0.5,1.7-0.5,2.7c0,3.9,3.2,7.1,7.1,7.1
		c3.9,0,7.1-3.2,7.1-7.1c0-0.9-0.2-1.8-0.5-2.7h3.9V27.9z"/>
</g>
</svg>
